<svg xmlns="http://www.w3.org/2000/svg" viewBox="0 0 384.97 384.97"><path d="M192.485 0C86.173 0 0 86.173 0 192.485S86.173 384.97 192.485 384.97c106.3 0 192.485-86.185 192.485-192.485C384.97 86.173 298.785 0 192.485 0zm0 360.909c-93.018 0-168.424-75.406-168.424-168.424S99.467 24.061 192.485 24.061s168.424 75.406 168.424 168.424-75.406 168.424-168.424 168.424z"/><path d="M280.306 125.031L156.538 247.692l-51.502-50.479c-4.74-4.704-12.439-4.704-17.179 0a11.931 11.931 0 000 17.011l60.139 58.936c4.932 4.343 12.307 4.824 17.179 0l132.321-131.118a11.952 11.952 0 000-17.011c-4.751-4.692-12.438-4.692-17.19 0z"/></svg>