<?xml version="1.0" encoding="UTF-8"?><!DOCTYPE svg PUBLIC "-//W3C//DTD SVG 1.1//EN" "http://www.w3.org/Graphics/SVG/1.1/DTD/svg11.dtd"><svg xmlns="http://www.w3.org/2000/svg" xmlns:xlink="http://www.w3.org/1999/xlink"><defs/><symbol id="account" viewBox="0 0 24 24"><path d="M4 18.83h16V20H4v-1.17zm13.657-5.244a8.085 8.085 0 00-3.04-1.767c1.212-.774 2.008-2.068 2.008-3.532C16.625 5.923 14.55 4 12 4S7.375 5.923 7.375 8.287c0 1.464.796 2.758 2.008 3.532a8.084 8.084 0 00-3.04 1.767C4.833 14.987 4 16.85 4 18.83h1.25c0-3.45 3.028-6.257 6.75-6.257s6.75 2.807 6.75 6.257H20c0-1.98-.832-3.843-2.343-5.243zM12 11.415c-1.861 0-3.375-1.403-3.375-3.128S10.139 5.159 12 5.159s3.375 1.403 3.375 3.128-1.514 3.128-3.375 3.128z"/></symbol><symbol id="basket" viewBox="0 0 24 24"><path d="M5 9h14v10H5z"/><path fill-rule="evenodd" clip-rule="evenodd" d="M18.546 9.333H5.455v9.333h13.09V9.333zM5.455 8C4.65 8 4 8.597 4 9.333v9.333c0 .736.651 1.333 1.455 1.333h13.09C19.35 20 20 19.402 20 18.666V9.333C20 8.597 19.349 8 18.546 8H5.455z"/><path fill-rule="evenodd" clip-rule="evenodd" d="M11.637 5.333h.728c1.807 0 3.272 1.343 3.272 3 0 .113-.006.224-.02.333h1.461c.01-.11.014-.22.014-.333C17.092 5.94 14.976 4 12.365 4h-.728C9.027 4 6.91 5.94 6.91 8.333c0 .112.005.223.014.333h1.46a2.81 2.81 0 01-.02-.333c0-1.657 1.466-3 3.273-3z"/><path fill-rule="evenodd" clip-rule="evenodd" d="M6.909 12.666V8h1.454v4.666H6.91zm8.726 0V8h1.455v4.666h-1.455z"/></symbol><symbol id="cart" viewBox="0 0 24 24"><path fill-rule="evenodd" clip-rule="evenodd" d="M18.546 9.333H5.455v9.333h13.09V9.333zM5.455 8C4.65 8 4 8.597 4 9.333v9.333c0 .736.651 1.333 1.455 1.333h13.09C19.35 20 20 19.402 20 18.666V9.333C20 8.597 19.349 8 18.546 8H5.455z"/><path fill-rule="evenodd" clip-rule="evenodd" d="M11.637 5.333h.727c1.807 0 3.273 1.343 3.273 3 0 .113-.007.224-.02.333h1.46c.01-.11.014-.22.014-.333C17.091 5.94 14.975 4 12.364 4h-.727C9.026 4 6.909 5.94 6.909 8.333c0 .112.005.223.014.333h1.46a3.04 3.04 0 01-.019-.333c0-1.657 1.465-3 3.273-3z"/><path fill-rule="evenodd" clip-rule="evenodd" d="M6.909 12.666V8h1.454v4.666H6.91zm8.727 0V8h1.455v4.666h-1.455z"/></symbol><symbol id="chevron" viewBox="0 0 20 20"><path d="M7.835 15.691a.833.833 0 01-.642-1.367l3.734-4.466-3.6-4.475a.833.833 0 01.124-1.175.833.833 0 011.217.125l4.025 5a.833.833 0 010 1.058l-4.167 5a.833.833 0 01-.691.3z"/></symbol><symbol id="close" viewBox="0 0 20 20"><path d="M4.617 16.002a.617.617 0 01-.436-1.054L14.946 4.185a.617.617 0 01.873.873L5.054 15.82a.616.616 0 01-.437.18z"/><path d="M15.383 15.999a.612.612 0 01-.436-.181L4.18 5.054a.617.617 0 11.873-.873l10.765 10.764a.617.617 0 01-.436 1.054z"/></symbol><symbol id="heart" viewBox="0 0 24 24"><path d="M20.564 7.279a5.376 5.376 0 00-1.185-1.712A5.567 5.567 0 0015.495 4a5.598 5.598 0 00-3.494 1.222A5.597 5.597 0 008.507 4a5.566 5.566 0 00-3.884 1.567A5.342 5.342 0 003.438 7.28 5.266 5.266 0 003 9.386c0 .688.142 1.405.423 2.135.235.61.573 1.243 1.004 1.881.684 1.011 1.623 2.066 2.79 3.135a31.152 31.152 0 003.93 3.045l.494.314a.67.67 0 00.718 0l.494-.314a31.557 31.557 0 003.93-3.045c1.167-1.07 2.106-2.124 2.79-3.134a9.43 9.43 0 001.004-1.882c.281-.73.423-1.447.423-2.135a5.229 5.229 0 00-.436-2.107zM12.001 18.26s-7.417-4.716-7.417-8.875c0-2.107 1.756-3.815 3.923-3.815 1.523 0 2.844.844 3.494 2.076a3.939 3.939 0 013.494-2.076c2.167 0 3.924 1.708 3.924 3.815 0 4.16-7.418 8.875-7.418 8.875z"/></symbol><symbol id="l-arrow" viewBox="0 0 15 13"><path fill-rule="evenodd" clip-rule="evenodd" d="M14.442 6.222a.889.889 0 01-.889.889H3.256l3.817 3.814a.89.89 0 11-1.259 1.259L.482 6.85a.889.889 0 010-1.258L5.814.261a.89.89 0 011.259 1.258L3.256 5.333h10.297a.889.889 0 01.889.89z"/></symbol><symbol id="location" viewBox="0 0 14 14"><path d="M7.754 12a.293.293 0 01-.285-.225L6.458 7.51l-4.232-.986a.293.293 0 01-.046-.556l9.414-3.946a.293.293 0 01.383.384L8.024 11.82a.293.293 0 01-.27.18zM3.241 6.16l3.526.821c.108.025.193.11.218.218l.846 3.567L11.16 2.84 3.241 6.16z"/></symbol><symbol id="loupe" viewBox="0 0 24 24"><path fill-rule="evenodd" clip-rule="evenodd" d="M15.46 14.319l4.304 4.304a.807.807 0 01-1.142 1.14L14.32 15.46a6.4 6.4 0 111.141-1.14zm-5.06.88a4.8 4.8 0 100-9.599 4.8 4.8 0 000 9.6z"/></symbol><symbol id="nav-account" viewBox="0 0 34 34"><path d="M5.667 26.676h22.666v1.658H5.667v-1.658z"/><path d="M25.014 19.249a11.451 11.451 0 00-4.307-2.504c1.717-1.096 2.845-2.93 2.845-5.004 0-3.349-2.94-6.073-6.552-6.073-3.613 0-6.552 2.724-6.552 6.073 0 2.074 1.128 3.908 2.845 5.004a11.451 11.451 0 00-4.307 2.504c-2.14 1.984-3.32 4.622-3.32 7.428h1.772c0-4.887 4.29-8.863 9.562-8.863 5.273 0 9.563 3.976 9.563 8.863h1.77c0-2.806-1.178-5.444-3.319-7.428zM17 16.172c-2.636 0-4.781-1.988-4.781-4.431 0-2.444 2.145-4.432 4.781-4.432 2.637 0 4.781 1.988 4.781 4.432 0 2.443-2.144 4.431-4.78 4.431z"/></symbol><symbol id="nav-cart" viewBox="0 0 34 34"><path d="M29.751 14.645H4.653a.6.6 0 01-.605-.621.6.6 0 01.605-.622h25.098a.6.6 0 01.606.622.6.6 0 01-.606.621z"/><path fill-rule="evenodd" clip-rule="evenodd" d="M29.751 14.969H4.653a.924.924 0 01-.93-.945c0-.527.398-.946.93-.946h25.098c.533 0 .93.42.93.946s-.397.945-.93.945zm-25.098-.324h25.098a.6.6 0 00.606-.621.6.6 0 00-.606-.622H4.653a.6.6 0 00-.605.622.6.6 0 00.606.621z"/><path d="M27.069 20.506h-.174c-.346-.089-.519-.444-.432-.71l1.557-5.86c.087-.356.433-.533.693-.445.346.09.52.444.433.71l-1.558 5.861c0 .266-.26.444-.52.444z"/><path fill-rule="evenodd" clip-rule="evenodd" d="M26.855 20.83l-.04-.01c-.515-.132-.803-.664-.663-1.114l1.555-5.85c.126-.51.64-.823 1.098-.675.508.138.79.665.652 1.112L27.91 20.11c-.028.478-.486.72-.841.72h-.214zm.733-.767l1.558-5.86c.086-.267-.087-.622-.433-.711-.26-.089-.606.089-.692.444l-1.558 5.86c-.087.267.086.622.433.71h.173c.26 0 .519-.177.519-.444z"/><path d="M28.8 13.491c-.26-.088-.606.09-.693.444l-2.942 11.188a1.677 1.677 0 01-1.645 1.332H10.971a1.677 1.677 0 01-1.644-1.332L6.384 13.935c-.086-.355-.432-.532-.692-.444-.346.09-.52.444-.433.71L8.202 25.39c.346 1.243 1.471 2.13 2.77 2.13h12.462c1.298 0 2.423-.887 2.77-2.13l3.028-11.188c0-.267-.173-.622-.433-.71z"/><path fill-rule="evenodd" clip-rule="evenodd" d="M25.165 25.124l2.942-11.188c.087-.355.433-.533.692-.444.26.089.433.444.433.71L26.203 25.39c-.346 1.243-1.471 2.131-2.77 2.131H10.972c-1.298 0-2.423-.888-2.77-2.131L5.26 14.202c-.086-.266.087-.621.433-.71.26-.089.606.089.692.444l2.943 11.188a1.677 1.677 0 001.644 1.332h12.55c.778 0 1.47-.533 1.643-1.332zM6.698 13.856l2.944 11.192.001.007c.14.647.699 1.077 1.328 1.077h12.55c.629 0 1.187-.43 1.327-1.077l.002-.007 2.943-11.192c.127-.514.65-.828 1.111-.67a.929.929 0 01.49.434c.1.176.162.386.162.582v.043l-3.041 11.232c-.384 1.378-1.633 2.368-3.081 2.368H10.97c-1.449 0-2.697-.99-3.081-2.368l-.001-.005-2.94-11.18c-.14-.447.144-.974.65-1.11.46-.149.973.165 1.1.674z"/><path d="M11.49 14.645c-.086 0-.26 0-.346-.089a.587.587 0 01-.173-.799l4.587-7.014c.173-.267.52-.356.779-.178.26.178.346.533.173.8l-4.587 7.014c0 .177-.26.266-.433.266z"/><path fill-rule="evenodd" clip-rule="evenodd" d="M16.51 7.365l-4.587 7.014c0 .178-.26.267-.432.267-.087 0-.26 0-.347-.09a.587.587 0 01-.173-.798l4.587-7.015c.173-.266.52-.355.779-.178.26.178.346.533.173.8zm-1.224-.798L10.7 13.58v.001a.91.91 0 00.239 1.227.65.65 0 00.324.146c.092.015.18.015.223.015h.005a.975.975 0 00.428-.102c.109-.056.268-.173.315-.371l4.547-6.954V7.54c.277-.426.132-.974-.261-1.243-.427-.292-.973-.132-1.233.268z"/><path d="M22.915 14.645a.475.475 0 01-.433-.266l-4.587-7.015a.587.587 0 01.173-.799c.26-.178.606-.089.779.178l4.587 7.014a.587.587 0 01-.173.8c-.087.088-.26.088-.346.088z"/><path fill-rule="evenodd" clip-rule="evenodd" d="M23.434 13.758a.587.587 0 01-.173.799c-.087.088-.26.088-.346.088a.474.474 0 01-.433-.266l-4.587-7.014a.587.587 0 01.173-.8c.26-.177.606-.088.779.178l4.587 7.014zm-4.316-7.192c-.26-.4-.805-.56-1.233-.268-.392.269-.538.817-.262 1.243l4.578 7c.15.288.438.428.714.428h.004c.043 0 .13 0 .223-.015a.648.648 0 00.324-.146.912.912 0 00.24-1.227l-4.588-7.015z"/><path d="M11.837 24.414a.49.49 0 01-.26-.444l-.086-6.837a.6.6 0 01.605-.621.6.6 0 01.606.621v6.837a.6.6 0 01-.606.622c-.086-.089-.173-.089-.26-.178z"/><path fill-rule="evenodd" clip-rule="evenodd" d="M11.49 17.133a.6.6 0 01.606-.622.6.6 0 01.606.622v6.837a.6.6 0 01-.606.621.44.44 0 00-.13-.088c-.043-.023-.086-.045-.13-.09a.49.49 0 01-.259-.443l-.086-6.837zm-.237 6.84a.815.815 0 00.392.704c.067.059.13.092.169.111l.005.003a.179.179 0 01.045.026l.096.098h.136c.533 0 .93-.419.93-.945v-6.837c0-.526-.397-.945-.93-.945a.924.924 0 00-.93.945l.087 6.84z"/><path d="M16.856 24.414a.49.49 0 01-.26-.444l-.086-6.837a.6.6 0 01.606-.621.6.6 0 01.606.621l.086 6.837a.6.6 0 01-.606.622c-.173-.089-.26-.089-.346-.178z"/><path fill-rule="evenodd" clip-rule="evenodd" d="M16.51 17.133a.6.6 0 01.606-.622.6.6 0 01.606.622l.086 6.837a.6.6 0 01-.606.621 1.488 1.488 0 00-.165-.072c-.074-.03-.127-.05-.18-.105a.49.49 0 01-.26-.444l-.087-6.837zm-.237 6.84c0 .262.124.546.391.704.075.066.149.1.21.125l.054.022c.041.016.076.03.127.055l.07.036h.077c.533 0 .93-.419.93-.945l-.087-6.84a.922.922 0 00-.93-.942c-.532 0-.929.419-.929.945l.087 6.84z"/><path d="M21.79 24.414a.49.49 0 01-.26-.444l-.087-6.837a.6.6 0 01.606-.621.6.6 0 01.606.621l.086 6.837a.6.6 0 01-.605.622c-.087-.089-.174-.089-.347-.178z"/><path fill-rule="evenodd" clip-rule="evenodd" d="M21.443 17.133a.6.6 0 01.606-.622.6.6 0 01.606.622l.086 6.837a.6.6 0 01-.606.621c-.053-.055-.107-.075-.18-.104-.046-.018-.1-.04-.166-.073a.49.49 0 01-.26-.444l-.086-6.837zm-.237 6.84l-.087-6.84c0-.526.397-.945.93-.945.532 0 .928.418.93.943l.086 6.839c0 .526-.397.945-.93.945H22l-.096-.098-.001-.001a.233.233 0 00-.03-.014l-.028-.01c-.045-.019-.12-.048-.203-.09a.814.814 0 01-.435-.73z"/></symbol><symbol id="nav-catalog" viewBox="0 0 34 34"><path fill-rule="evenodd" clip-rule="evenodd" d="M12.62 7.7H8A1.3 1.3 0 006.7 9v4.667a1.3 1.3 0 001.3 1.3h4.62a1.3 1.3 0 001.3-1.3V9a1.3 1.3 0 00-1.3-1.3zM8 6a3 3 0 00-3 3v4.667a3 3 0 003 3h4.62a3 3 0 003-3V9a3 3 0 00-3-3H8zm17 1.7h-4.62a1.3 1.3 0 00-1.3 1.3v4.667a1.3 1.3 0 001.3 1.3H25a1.3 1.3 0 001.3-1.3V9A1.3 1.3 0 0025 7.7zM20.38 6a3 3 0 00-3 3v4.667a3 3 0 003 3H25a3 3 0 003-3V9a3 3 0 00-3-3h-4.62zm-7.76 14.032H8a1.3 1.3 0 00-1.3 1.3v4.667a1.3 1.3 0 001.3 1.3h4.62a1.3 1.3 0 001.3-1.3v-4.667a1.3 1.3 0 00-1.3-1.3zM8 18.332a3 3 0 00-3 3v4.667a3 3 0 003 3h4.62a3 3 0 003-3v-4.667a3 3 0 00-3-3H8zm17 1.7h-4.62a1.3 1.3 0 00-1.3 1.3v4.667a1.3 1.3 0 001.3 1.3H25a1.3 1.3 0 001.3-1.3v-4.667a1.3 1.3 0 00-1.3-1.3zm-4.62-1.7a3 3 0 00-3 3v4.667a3 3 0 003 3H25a3 3 0 003-3v-4.667a3 3 0 00-3-3h-4.62z"/></symbol><symbol id="nav-favourites" viewBox="0 0 34 34"><path d="M28.555 10.78a7.055 7.055 0 00-1.6-2.246 7.46 7.46 0 00-2.36-1.506 7.692 7.692 0 00-2.88-.551 7.711 7.711 0 00-3.912 1.058 7.336 7.336 0 00-.802.546 7.326 7.326 0 00-.8-.546 7.71 7.71 0 00-3.914-1.058c-.998 0-1.965.184-2.879.55a7.444 7.444 0 00-2.36 1.507 7.012 7.012 0 00-1.6 2.247 6.753 6.753 0 00-.59 2.765c0 .904.19 1.846.57 2.804.318.8.773 1.631 1.355 2.47.922 1.327 2.19 2.71 3.764 4.114 2.609 2.326 5.192 3.932 5.302 3.997l.666.413a.93.93 0 00.97 0l.666-.413c.11-.067 2.69-1.671 5.302-3.997 1.574-1.403 2.842-2.787 3.764-4.114.582-.839 1.04-1.67 1.355-2.47.38-.958.57-1.9.57-2.804a6.705 6.705 0 00-.587-2.765zM17.001 25.198s-10.007-6.19-10.007-11.65c0-2.766 2.37-5.008 5.293-5.008 2.055 0 3.837 1.107 4.714 2.725.877-1.618 2.66-2.725 4.715-2.725 2.923 0 5.293 2.242 5.293 5.007 0 5.46-10.008 11.651-10.008 11.651z"/></symbol><symbol id="nav-main" viewBox="0 0 34 34"><path d="M26.824 14.386l-9.992-9.167a.833.833 0 00-1.142.016l-9.437 9.167A.834.834 0 006 15v13.167c0 .46.373.833.833.833h6.938c.46 0 .833-.373.833-.833v-6.111h3.886v6.11c0 .46.373.834.832.834h6.94a.833.833 0 00.832-.833V15a.834.834 0 00-.27-.614zm-1.396 12.947h-5.273v-6.11a.833.833 0 00-.833-.834h-5.55a.833.833 0 00-.833.833v6.111H7.665v-11.98l8.62-8.374 9.143 8.388v11.966z"/></symbol></svg>